<?xml version="1.0" standalone="no"?><!DOCTYPE svg PUBLIC "-//W3C//DTD SVG 1.1//EN" "http://www.w3.org/Graphics/SVG/1.1/DTD/svg11.dtd"><svg class="icon" width="200px" height="200.00px" viewBox="0 0 1024 1024" version="1.1" xmlns="http://www.w3.org/2000/svg"><path d="M296.176025 240.517889c2.168386 3.628644 4.78191 6.779404 7.92039 9.449209 3.13848 2.659573 7.92039 7.247054 14.390755 13.740956 6.447852 6.482645 13.010315 13.147438 19.663852 20.017916 7.440459 8.012488 15.647375 16.606213 24.651446 25.758664l176.086437 0c8.616238-9.152451 16.822131-17.746176 24.639167-25.758664 6.665817-6.870478 13.204743-13.535271 19.664875-20.017916 6.447852-6.493901 11.252275-11.070126 14.380522-13.740956 2.738367-2.670829 5.272074-5.820566 7.622608-9.449209 2.352581-3.629667 3.91517-7.441483 4.703115-11.447726 0.787946-3.993964 0.787946-8.000208 0-12.017708-0.787946-3.993964-2.750647-7.715729-5.877871-11.162224-3.53757-3.423983-6.641257-4.941546-9.403161-4.576225-2.738367 0.387833-5.764284 1.335415-9.083889 2.864234-3.321652 1.517563-7.236821 3.240811-11.744485 5.135974-4.497431 1.917676-10.270924 2.864234-17.312294 2.864234-6.655584 0-11.835559-1.711991-15.545044-5.135974-3.730974-3.446495-7.142677-7.167237-10.270924-11.172457s-6.665817-7.714705-10.578939-11.149944c-3.89368-3.423983-9.188266-5.15951-15.84078-5.15951-6.665817 0-12.028964 1.711991-16.149818 5.15951-4.108574 3.435239-7.909134 7.15598-11.435447 11.149944-3.526313 4.006244-7.133468 7.646144-10.853186 10.865465-3.709485 3.252067-8.502651 4.872984-14.379499 4.872984-7.04137 0-12.599969-1.620917-16.7198-4.872984-4.13211-3.229554-7.749498-6.859221-10.853186-10.865465-3.13848-4.006244-6.573719-7.714705-10.271948-11.149944-3.731998-3.423983-8.912997-5.15951-15.555278-5.15951-6.653537 0-11.949146 1.711991-15.84078 5.15951-3.91517 3.435239-7.532557 7.15598-10.853186 11.149944-3.331885 4.006244-6.859221 7.725962-10.567683 11.172457-3.709485 3.423983-8.708336 5.135974-14.97404 5.135974-7.030114 0-12.896728-0.947582-17.597797-2.864234-4.690836-1.906419-8.708336-3.618411-12.028964-5.135974-3.331885-1.528819-6.368034-2.487657-9.096169-2.864234-2.728134-0.36532-5.865591 1.140986-9.392928 4.576225-3.127224 3.446495-5.180999 7.167237-6.151094 11.162224-0.992607 4.0175-0.992607 8.022721 0 12.017708C292.455283 233.076406 294.007639 236.888222 296.176025 240.517889zM559.431777 583.219041l-0.182149 0C559.798121 586.916247 559.431777 583.219041 559.431777 583.219041zM710.572056 598.260619c-70.496587 0-127.663588-30.243815-127.980813-67.575048 0 14.277168-0.035816 26.752294-0.035816 26.752294 0 16.011672 10.534937 30.711466 28.040636 42.329061 17.702174 4.644787 33.450856 11.207249 46.564525 19.310811 16.297175 3.971451 34.341133 6.243191 53.411467 6.243191 70.736041 0 128.017652-30.369681 128.017652-67.883063l0-27.059286C838.588685 567.880705 781.285584 598.260619 710.572056 598.260619zM546.719244 818.633702c-70.50682 0-127.661541-30.220279-127.981836-67.562768 0 14.264888-0.033769 26.751271-0.033769 26.751271 0 37.502126 57.326637 67.883063 128.015605 67.883063 70.725808 0 128.005372-30.379914 128.005372-67.883063L674.724617 750.751662C674.723593 788.276301 617.445052 818.633702 546.719244 818.633702zM582.554404 510.211261c0 37.502126 57.326637 67.883063 128.017652 67.883063 70.736041 0 128.017652-30.379914 128.017652-67.883063 0-37.502126-57.281611-67.89432-128.017652-67.89432C639.882064 442.316941 582.554404 472.686622 582.554404 510.211261zM559.250652 583.219041c-0.320295-2.248204-0.99363-7.189749-2.281973-17.325597-4.919033-38.585807 3.287883-70.872141 3.287883-70.872141 8.855692-50.398854 77.171614-69.777203 99.986225-74.90192-7.840572-9.324366-15.714913-17.96414-23.567765-25.929556-23.485901-22.89443-50.078559-42.534745-79.81993-58.94653L344.38398 335.243297c-30.129204 16.399505-56.93778 36.052101-80.402191 58.94653-10.191106 9.92914-19.960611 20.896936-29.353538 32.914644-9.392928 12.017708-17.895579 25.370831-25.541723 40.035832-7.623631 14.699794-13.694907 30.540573-18.181081 47.52234-4.519943 16.97051-6.755868 35.19764-6.755868 54.643528 0 32.44597 5.078669 61.434188 15.258519 86.999446 10.157337 25.564235 26.112728 47.311539 47.841611 65.22963 21.706371 17.940604 49.393967 31.659047 83.050508 41.200354 18.602683 5.272074 39.23663 9.083889 61.925375 11.45796l0-72.060199c-1.665942-29.142737 5.729491-40.166815 5.729491-40.166815C426.851203 582.510914 554.023604 583.149457 559.250652 583.219041zM387.249253 517.40101c0-6.345522 5.14723-11.492752 11.481496-11.492752l43.517119 0 0-21.193695-43.517119 0c-6.333242 0-11.481496-5.135974-11.481496-11.491729 0-6.356778 5.14723-11.504008 11.481496-11.504008l37.798884 0-44.361347-44.441165c-4.290723-4.290723-4.290723-11.275811 0-15.566534 4.303003-4.303003 11.253298-4.303003 15.555278 0l43.801599 43.881416c0.707105-0.137123 1.437745-0.216941 2.191922-0.216941 0.924045 0 1.814322 0.125867 2.669806 0.330528l45.331441-45.411259c4.290723-4.303003 11.252275-4.303003 15.542998 0 4.290723 4.290723 4.290723 11.275811 0.01228 15.566534l-45.765323 45.856397 37.195134 0c6.343475 0 11.480472 5.14723 11.480472 11.504008 0 6.356778-5.136997 11.491729-11.480472 11.491729L465.198579 484.71354l0 21.193695 43.505863 0c6.343475 0 11.480472 5.14723 11.480472 11.492752 0 6.345522-5.136997 11.504008-11.480472 11.504008L465.198579 528.903995l0 26.626427c0 6.356778-5.135974 11.502985-11.481496 11.502985-6.334265 0-11.469216-5.146207-11.469216-11.502985l0-26.626427-43.517119 0C392.396483 528.905018 387.249253 523.746532 387.249253 517.40101zM710.572056 739.931223c-4.085038 0-8.160867-0.113587-12.189623-0.319272-0.157589 1.186012-0.12382 2.396583-0.354064 3.560082 0.832971 2.396583 1.291412 4.952802 1.291412 7.601118l0 15.931854c3.709485 0.204661 7.462972 0.320295 11.274788 0.320295 70.725808 0 128.005372-30.380938 128.005372-67.900459l0-27.059286C838.588685 709.573821 781.285584 739.931223 710.572056 739.931223zM710.572056 692.724061c-4.085038 0-8.160867-0.125867-12.189623-0.320295-0.157589 1.164522-0.12382 2.385327-0.354064 3.53757 0.832971 2.385327 1.291412 4.953825 1.291412 7.607258l0 15.909341c3.709485 0.205685 7.462972 0.320295 11.274788 0.320295 70.725808 0 128.005372-30.386054 128.005372-67.889203l0-27.048029C838.588685 662.330844 781.285584 692.724061 710.572056 692.724061zM710.572056 672.53423c70.736041 0 128.017652-30.357402 128.017652-67.883063l0-27.036773c0 37.502126-57.3031 67.871807-128.017652 67.871807-8.606005 0-16.994046-0.456395-25.119097-1.324158 6.493901 8.628518 10.864442 18.020422 12.725836 28.040636C702.297602 672.430876 706.41641 672.53423 710.572056 672.53423zM546.719244 771.431657c-70.50682 0-127.661541-30.220279-127.981836-67.586304 0 14.265912-0.033769 26.752294-0.033769 26.752294 0 37.501102 57.326637 67.88204 128.015605 67.88204 70.725808 0 128.005372-30.379914 128.005372-67.88204l0-27.049053C674.723593 741.05072 617.445052 771.431657 546.719244 771.431657zM546.719244 615.481839c-70.689992 0-128.015605 30.369681-128.015605 67.89432 0 37.497009 57.326637 67.877947 128.015605 67.877947 70.725808 0 128.005372-30.380938 128.005372-67.877947C674.723593 645.851521 617.445052 615.481839 546.719244 615.481839z" fill="#ffffff" /></svg>